<svg width="18" height="18" viewBox="0 0 18 18" fill="none" xmlns="http://www.w3.org/2000/svg">
<path fill-rule="evenodd" clip-rule="evenodd" d="M0 0H34.2003V1.38463H0V0ZM0 2.76926H34.2003V4.15389H0V2.76926ZM0 5.53852H34.2003V6.92314H0V5.53852ZM0 8.30777H34.2003V9.6924H0V8.30777ZM0 11.077H34.2003V12.4617H0V11.077ZM0 13.8463H34.2003V15.2309H0V13.8463ZM0 16.6155H34.2003V18.0002H0V16.6155Z" fill="#BD3D44"/>
<path fill-rule="evenodd" clip-rule="evenodd" d="M0 1.38452H34.2003V2.76915H0V1.38452ZM0 4.15378H34.2003V5.53841H0V4.15378ZM0 6.92304H34.2003V8.30767H0V6.92304ZM0 9.6923H34.2003V11.0769H0V9.6923ZM0 12.4616H34.2003V13.8462H0V12.4616ZM0 15.2308H34.2003V16.6154H0V15.2308Z" fill="white"/>
<path fill-rule="evenodd" clip-rule="evenodd" d="M0 0H13.6801V9.6924H0V0Z" fill="#192F5D"/>
<path fill-rule="evenodd" clip-rule="evenodd" d="M1.13536 0.415283L1.27382 0.802979H1.66152L1.34305 1.03837L1.46767 1.41222L1.13536 1.17683L0.830741 1.41222L0.955358 1.03837L0.623047 0.802979H1.03844L1.13536 0.415283ZM3.42 0.415283L3.54461 0.802979H3.94616L3.61385 1.03837L3.75231 1.41222L3.42 1.17683L3.08769 1.41222L3.22615 1.03837L2.89384 0.802979H3.29538L3.42 0.415283ZM5.70464 0.415283L5.82925 0.802979H6.23079L5.89848 1.03837L6.03695 1.41222L5.70464 1.17683L5.37232 1.41222L5.51079 1.03837L5.17848 0.802979H5.58002L5.70464 0.415283ZM7.97543 0.415283L8.11389 0.802979H8.50159L8.18312 1.03837L8.30774 1.41222L7.97543 1.17683L7.65696 1.41222L7.78158 1.03837L7.44927 0.802979H7.86466L7.97543 0.415283ZM10.2601 0.415283L10.3847 0.802979H10.7862L10.4539 1.03837L10.5924 1.41222L10.2462 1.17683L9.92775 1.41222L10.0524 1.03837L9.72006 0.802979H10.1216L10.2601 0.415283ZM12.5447 0.415283L12.6693 0.802979H13.0709L12.7386 1.03837L12.877 1.41222L12.5447 1.17683L12.2124 1.41222L12.3509 1.03837L12.0185 0.802979H12.4201L12.5447 0.415283ZM2.2846 1.38452L2.40922 1.77222H2.81076L2.47845 2.00761L2.61691 2.38146L2.2846 2.14607L1.95229 2.38146L2.09075 2.00761L1.75844 1.77222H2.15999L2.2846 1.38452ZM4.55539 1.38452L4.69386 1.77222H5.08155L4.76309 2.00761L4.8877 2.38146L4.55539 2.14607L4.23693 2.38146L4.36155 2.00761L4.02923 1.77222H4.44462L4.55539 1.38452ZM6.84003 1.38452L6.96465 1.77222H7.36619L7.03388 2.00761L7.17234 2.38146L6.84003 2.14607L6.50772 2.38146L6.64618 2.00761L6.31387 1.77222H6.71541L6.84003 1.38452ZM9.12467 1.38452L9.24929 1.77222H9.65083L9.31852 2.00761L9.45698 2.38146L9.12467 2.14607L8.79236 2.38146L8.93082 2.00761L8.59851 1.77222H9.00005L9.12467 1.38452ZM11.3955 1.38452L11.5339 1.77222H11.9078L11.5893 2.00761L11.7139 2.38146L11.3816 2.14607L11.0631 2.38146L11.1878 2.00761L10.8555 1.77222H11.2708L11.3955 1.38452ZM1.14921 2.35376L1.25998 2.74146H1.67536L1.34305 2.97685L1.46767 3.3507L1.13536 3.11531L0.830741 3.3507L0.955358 2.97685L0.623047 2.74146H1.03844L1.14921 2.35376ZM3.42 2.35376L3.54461 2.74146H3.94616L3.62769 2.97685L3.75231 3.3507L3.42 3.11531L3.10153 3.3507L3.22615 2.97685L2.89384 2.74146H3.29538L3.42 2.35376ZM5.70464 2.35376L5.82925 2.74146H6.23079L5.89848 2.97685L6.03695 3.3507L5.70464 3.11531L5.37232 3.3507L5.51079 2.97685L5.17848 2.74146H5.58002L5.70464 2.35376ZM7.97543 2.35376L8.11389 2.74146H8.50159L8.18312 2.97685L8.30774 3.3507L7.97543 3.11531L7.65696 3.3507L7.78158 2.97685L7.44927 2.74146H7.86466L7.97543 2.35376ZM10.2601 2.35376L10.3847 2.74146H10.7862L10.4678 2.97685L10.5924 3.3507L10.2601 3.11531L9.9416 3.3507L10.0662 2.97685L9.73391 2.74146H10.1354L10.2601 2.35376ZM12.5447 2.35376L12.6693 2.74146H13.0709L12.7386 2.97685L12.877 3.3507L12.5447 3.11531L12.2124 3.3507L12.3509 2.97685L12.0185 2.74146H12.4201L12.5447 2.35376ZM2.2846 3.323L2.40922 3.7107H2.81076L2.47845 3.94609L2.61691 4.31994L2.2846 4.08455L1.95229 4.31994L2.09075 3.94609L1.75844 3.7107H2.15999L2.2846 3.323ZM4.55539 3.323L4.69386 3.7107H5.08155L4.76309 3.94609L4.8877 4.31994L4.55539 4.08455L4.23693 4.31994L4.36155 3.94609L4.02923 3.7107H4.44462L4.55539 3.323ZM6.84003 3.323L6.96465 3.7107H7.36619L7.04773 3.94609L7.17234 4.31994L6.84003 4.08455L6.52157 4.31994L6.64618 3.94609L6.31387 3.7107H6.71541L6.84003 3.323ZM9.12467 3.323L9.24929 3.7107H9.65083L9.31852 3.94609L9.45698 4.31994L9.12467 4.08455L8.79236 4.31994L8.93082 3.94609L8.59851 3.7107H9.00005L9.12467 3.323ZM11.3955 3.323L11.5339 3.7107H11.9078L11.5893 3.94609L11.7139 4.31994L11.3816 4.08455L11.0631 4.31994L11.1878 3.94609L10.8555 3.7107H11.2708L11.3955 3.323ZM1.14921 4.29224L1.25998 4.67994H1.67536L1.34305 4.91533L1.46767 5.28918L1.13536 5.05379L0.830741 5.28918L0.955358 4.91533L0.623047 4.67994H1.03844L1.14921 4.29224ZM3.42 4.29224L3.54461 4.67994H3.94616L3.62769 4.91533L3.75231 5.28918L3.42 5.05379L3.10153 5.28918L3.22615 4.91533L2.89384 4.67994H3.29538L3.42 4.29224ZM5.70464 4.29224L5.82925 4.67994H6.23079L5.89848 4.91533L6.03695 5.28918L5.70464 5.05379L5.37232 5.28918L5.51079 4.91533L5.17848 4.67994H5.58002L5.70464 4.29224ZM7.97543 4.29224L8.11389 4.67994H8.50159L8.18312 4.91533L8.30774 5.28918L7.97543 5.05379L7.65696 5.28918L7.78158 4.91533L7.44927 4.67994H7.86466L7.97543 4.29224ZM10.2601 4.29224L10.3847 4.67994H10.7862L10.4678 4.91533L10.5924 5.28918L10.2601 5.05379L9.9416 5.28918L10.0662 4.91533L9.73391 4.67994H10.1354L10.2601 4.29224ZM12.5447 4.29224L12.6693 4.67994H13.0709L12.7386 4.91533L12.877 5.28918L12.5447 5.05379L12.2124 5.28918L12.3509 4.91533L12.0185 4.67994H12.4201L12.5447 4.29224ZM2.2846 5.26148L2.40922 5.64918H2.81076L2.47845 5.88457L2.61691 6.25842L2.2846 6.02303L1.95229 6.25842L2.09075 5.88457L1.75844 5.64918H2.15999L2.2846 5.26148ZM4.55539 5.26148L4.69386 5.64918H5.08155L4.76309 5.88457L4.8877 6.25842L4.55539 6.02303L4.23693 6.25842L4.36155 5.88457L4.02923 5.64918H4.44462L4.55539 5.26148ZM6.84003 5.26148L6.96465 5.64918H7.36619L7.04773 5.88457L7.17234 6.25842L6.84003 6.02303L6.52157 6.25842L6.64618 5.88457L6.31387 5.64918H6.71541L6.84003 5.26148ZM9.12467 5.26148L9.24929 5.64918H9.65083L9.31852 5.88457L9.45698 6.25842L9.12467 6.02303L8.79236 6.25842L8.93082 5.88457L8.59851 5.64918H9.00005L9.12467 5.26148ZM11.3955 5.26148L11.5339 5.64918H11.9078L11.5893 5.88457L11.7139 6.25842L11.3816 6.02303L11.0631 6.25842L11.1878 5.88457L10.8555 5.64918H11.2708L11.3955 5.26148ZM1.14921 6.23072L1.25998 6.61842H1.67536L1.34305 6.85381L1.46767 7.22766L1.13536 6.99227L0.830741 7.22766L0.955358 6.85381L0.623047 6.61842H1.03844L1.14921 6.23072ZM3.42 6.23072L3.54461 6.61842H3.94616L3.62769 6.85381L3.75231 7.22766L3.42 6.99227L3.10153 7.22766L3.22615 6.85381L2.89384 6.61842H3.29538L3.42 6.23072ZM5.70464 6.23072L5.82925 6.61842H6.23079L5.89848 6.85381L6.03695 7.22766L5.70464 6.99227L5.37232 7.22766L5.51079 6.85381L5.17848 6.61842H5.58002L5.70464 6.23072ZM7.97543 6.23072L8.11389 6.61842H8.50159L8.18312 6.85381L8.30774 7.22766L7.97543 6.99227L7.65696 7.22766L7.78158 6.85381L7.44927 6.61842H7.86466L7.97543 6.23072ZM10.2601 6.23072L10.3847 6.61842H10.7862L10.4678 6.85381L10.5924 7.22766L10.2601 6.99227L9.9416 7.22766L10.0662 6.85381L9.73391 6.61842H10.1354L10.2601 6.23072ZM12.5447 6.23072L12.6693 6.61842H13.0709L12.7386 6.85381L12.877 7.22766L12.5447 6.99227L12.2124 7.22766L12.3509 6.85381L12.0185 6.61842H12.4201L12.5447 6.23072ZM2.2846 7.19996L2.40922 7.58766H2.81076L2.47845 7.82305L2.61691 8.1969L2.2846 7.96151L1.95229 8.1969L2.09075 7.82305L1.75844 7.58766H2.15999L2.2846 7.19996ZM4.55539 7.19996L4.69386 7.58766H5.08155L4.76309 7.82305L4.8877 8.1969L4.55539 7.96151L4.23693 8.1969L4.36155 7.82305L4.02923 7.58766H4.44462L4.55539 7.19996ZM6.84003 7.19996L6.96465 7.58766H7.36619L7.04773 7.82305L7.17234 8.1969L6.84003 7.96151L6.52157 8.1969L6.64618 7.82305L6.31387 7.58766H6.71541L6.84003 7.19996ZM9.12467 7.19996L9.24929 7.58766H9.65083L9.31852 7.82305L9.45698 8.1969L9.12467 7.96151L8.79236 8.1969L8.93082 7.82305L8.59851 7.58766H9.00005L9.12467 7.19996ZM11.3955 7.19996L11.5339 7.58766H11.9078L11.5893 7.82305L11.7139 8.1969L11.3816 7.96151L11.0631 8.1969L11.1878 7.82305L10.8555 7.58766H11.2708L11.3955 7.19996ZM1.14921 8.1692L1.25998 8.5569H1.67536L1.34305 8.79229L1.46767 9.16614L1.13536 8.93075L0.830741 9.16614L0.955358 8.79229L0.623047 8.5569H1.03844L1.14921 8.1692ZM3.42 8.1692L3.54461 8.5569H3.94616L3.62769 8.79229L3.75231 9.16614L3.42 8.93075L3.10153 9.16614L3.22615 8.79229L2.89384 8.5569H3.29538L3.42 8.1692ZM5.70464 8.1692L5.82925 8.5569H6.23079L5.89848 8.79229L6.03695 9.16614L5.70464 8.93075L5.37232 9.16614L5.51079 8.79229L5.17848 8.5569H5.58002L5.70464 8.1692ZM7.97543 8.1692L8.11389 8.5569H8.50159L8.18312 8.79229L8.30774 9.16614L7.97543 8.93075L7.65696 9.16614L7.78158 8.79229L7.44927 8.5569H7.86466L7.97543 8.1692ZM10.2601 8.1692L10.3847 8.5569H10.7862L10.4678 8.79229L10.5924 9.16614L10.2601 8.93075L9.9416 9.16614L10.0662 8.79229L9.73391 8.5569H10.1354L10.2601 8.1692ZM12.5447 8.1692L12.6693 8.5569H13.0709L12.7386 8.79229L12.877 9.16614L12.5447 8.93075L12.2124 9.16614L12.3509 8.79229L12.0185 8.5569H12.4201L12.5447 8.1692Z" fill="white"/>
</svg>
